<?xml version="1.0" standalone="no"?>
<!DOCTYPE svg PUBLIC "-//W3C//DTD SVG 20010904//EN"
 "http://www.w3.org/TR/2001/REC-SVG-20010904/DTD/svg10.dtd">
<svg version="1.0" xmlns="http://www.w3.org/2000/svg"
 width="1106.000000pt" height="521.000000pt" viewBox="0 0 1106.000000 521.000000"
 preserveAspectRatio="xMidYMid meet">

<g transform="translate(0.000000,521.000000) scale(0.100000,-0.100000)"
fill="#000000" stroke="none">
<path d="M10655 4679 c-169 -15 -233 -26 -262 -47 -24 -17 -86 -111 -351 -531
-19 -29 -37 -49 -42 -45 -4 5 -56 101 -115 214 -121 230 -142 263 -188 286
-33 18 -118 16 -307 -6 -47 -6 -132 -14 -190 -19 -238 -22 -349 -33 -415 -43
-69 -11 -70 -11 -142 -87 -40 -42 -83 -91 -96 -108 -26 -39 -47 -42 -47 -8 0
67 -60 138 -128 151 -41 8 -388 -22 -439 -37 -17 -6 -43 -19 -58 -31 -25 -19
-27 -19 -61 -3 -42 20 -55 20 -204 5 -63 -7 -149 -15 -190 -19 -92 -9 -118
-19 -157 -64 -38 -43 -34 -14 -93 -657 -25 -275 -45 -321 -131 -308 -22 3 -24
8 -23 58 0 30 6 109 13 175 27 269 42 435 48 530 5 94 3 102 -19 135 -13 19
-44 46 -68 59 -44 24 -44 24 -174 12 -265 -25 -309 -32 -348 -57 -63 -40 -65
-47 -98 -364 -56 -524 -59 -600 -34 -713 26 -119 77 -211 163 -297 87 -86 165
-129 293 -162 72 -18 101 -20 228 -15 151 6 234 22 340 67 115 49 233 138 291
218 l34 47 6 -62 c7 -73 38 -121 95 -148 32 -15 53 -17 143 -11 58 4 142 11
186 17 44 5 99 12 123 15 54 7 105 50 126 107 8 23 18 81 21 128 4 47 10 91
14 97 5 8 43 -33 109 -116 56 -70 116 -136 133 -146 38 -22 76 -23 229 -7 210
23 284 31 385 40 236 21 331 34 356 47 62 32 99 104 99 197 0 26 4 47 9 47 5
0 20 -15 34 -34 44 -58 83 -69 205 -61 106 7 161 22 193 51 14 13 18 10 34
-26 21 -47 73 -97 110 -106 26 -6 79 -3 270 15 160 15 172 19 215 57 44 40 56
70 65 169 3 39 13 142 21 230 19 209 33 355 45 485 11 112 21 224 39 415 6 66
9 133 6 148 -14 69 -91 128 -163 126 -21 -1 -83 -6 -138 -10z m131 -216 c-6
-58 -27 -282 -47 -503 -5 -63 -14 -155 -19 -205 -5 -49 -14 -142 -20 -205 -6
-63 -16 -158 -21 -212 l-11 -96 -42 -6 c-69 -10 -278 -28 -281 -24 -2 2 0 35
5 73 4 39 13 129 20 200 6 72 16 171 21 222 5 51 9 107 9 125 0 28 -2 30 -13
18 -8 -8 -85 -130 -172 -270 -87 -140 -163 -260 -169 -266 -6 -6 -45 -14 -87
-17 l-75 -6 -107 192 c-58 105 -118 218 -134 249 -15 31 -31 57 -34 57 -7 1
-19 -105 -62 -544 l-12 -120 -80 -7 c-44 -4 -116 -12 -159 -18 -44 -5 -81 -8
-84 -6 -2 3 1 46 7 98 5 51 15 140 20 198 22 227 31 321 46 475 8 88 19 205
25 260 5 55 12 130 16 167 3 37 12 72 18 77 12 10 273 37 281 29 3 -2 68 -125
146 -274 198 -378 213 -404 224 -401 6 2 116 170 245 374 129 204 241 378 249
387 9 11 31 16 70 17 31 0 79 4 106 9 28 4 67 8 88 9 l39 1 -6 -57z m-1612
-145 c-21 -24 -148 -164 -283 -311 -135 -148 -249 -274 -252 -280 -6 -11 35
-67 344 -466 65 -84 121 -159 123 -166 4 -10 -15 -15 -73 -20 -43 -4 -129 -13
-191 -19 -62 -7 -116 -9 -121 -6 -4 3 -79 95 -166 205 -86 110 -161 201 -165
203 -16 6 -150 -153 -154 -183 -2 -16 -9 -86 -15 -154 -6 -69 -13 -126 -15
-128 -3 -3 -112 -15 -275 -30 l-74 -6 7 59 c8 62 19 177 36 354 5 58 21 220
35 360 14 140 30 309 36 375 5 66 13 123 17 126 8 6 151 25 271 34 l73 6 -7
-83 c-4 -46 -11 -112 -15 -148 -5 -36 -12 -114 -16 -175 -5 -97 -5 -108 8 -95
18 18 253 279 387 429 52 58 101 110 110 115 8 5 61 14 116 19 55 5 132 12
170 16 39 5 83 9 99 10 l28 1 -38 -42z m-1439 -165 c-6 -63 -19 -192 -34 -348
-6 -55 -13 -136 -16 -180 -10 -117 -32 -262 -51 -324 -41 -140 -119 -255 -218
-325 -136 -95 -265 -130 -461 -124 -115 4 -138 7 -199 33 -123 51 -212 154
-251 289 -19 64 -17 209 4 396 10 87 23 217 41 407 6 60 16 111 22 114 7 4 46
10 88 13 41 3 112 10 158 16 45 6 86 9 91 6 4 -3 4 -36 0 -73 -4 -37 -12 -122
-18 -188 -7 -66 -17 -163 -23 -215 -7 -52 -12 -161 -12 -241 -1 -141 0 -146
26 -186 38 -58 84 -76 177 -71 117 7 179 46 221 140 27 62 36 114 60 363 18
190 31 325 46 473 5 48 7 52 32 53 15 0 74 7 132 14 58 7 124 13 148 14 l42 1
-5 -57z m1388 -205 c-2 -29 -8 -91 -13 -138 -5 -47 -14 -143 -21 -215 -6 -71
-12 -139 -13 -150 -1 -19 -3 -18 -23 5 -30 34 -166 210 -186 241 -16 24 -14
26 115 167 72 78 134 142 138 142 4 0 5 -24 3 -52z"/>
<path d="M2690 4154 c-46 -9 -145 -47 -185 -72 -91 -56 -151 -130 -195 -239
-22 -53 -33 -68 -75 -94 l-49 -31 -21 25 c-53 64 -89 70 -317 47 -148 -15
-188 -24 -221 -50 -14 -11 -83 -111 -153 -222 -70 -112 -150 -238 -177 -281
l-50 -78 -29 53 c-16 29 -68 127 -115 218 -107 205 -116 218 -170 242 -42 18
-49 19 -210 3 -198 -19 -209 -21 -249 -51 -46 -34 -60 -75 -73 -209 -7 -66
-16 -158 -21 -205 -5 -47 -14 -139 -20 -205 -10 -114 -14 -157 -40 -420 -41
-410 -41 -422 -2 -474 10 -14 34 -36 53 -49 38 -26 51 -26 304 -3 198 18 255
56 270 178 3 32 9 68 12 80 6 25 23 32 23 10 0 -18 60 -74 93 -86 60 -23 288
9 317 44 18 22 28 18 35 -14 8 -37 68 -97 112 -112 35 -11 36 -11 333 23 52 6
107 17 121 24 32 16 79 70 79 90 0 18 7 18 38 -5 92 -64 150 -74 322 -55 74 8
176 19 225 25 105 11 245 26 365 38 397 40 511 55 563 73 49 16 63 18 94 7 36
-12 53 -11 268 11 55 6 143 15 195 20 52 5 138 14 190 19 52 5 142 14 200 20
58 6 141 15 185 20 44 6 139 15 210 21 72 6 168 15 215 20 47 5 132 14 190 20
58 6 143 15 190 20 47 5 137 15 200 21 121 12 151 22 187 61 34 36 41 65 59
247 20 198 15 231 -41 280 -19 16 -51 33 -72 37 -21 4 -125 -2 -238 -14 -110
-11 -203 -17 -207 -14 -4 4 0 72 8 152 33 337 46 491 50 595 5 99 3 113 -15
143 -40 63 -71 73 -201 68 -311 -13 -392 -31 -436 -98 -21 -33 -28 -72 -54
-338 -6 -58 -15 -148 -20 -200 -6 -52 -15 -147 -20 -210 -6 -63 -13 -131 -16
-151 l-6 -36 -97 -11 c-53 -6 -123 -14 -156 -17 -33 -3 -77 -8 -97 -11 l-38
-6 0 44 c0 24 4 79 10 123 5 44 14 139 20 210 7 72 16 173 21 225 23 250 23
252 -3 290 -13 19 -39 45 -58 58 -33 22 -41 23 -150 18 -134 -6 -292 -21 -335
-31 -44 -11 -95 -53 -111 -90 -7 -18 -18 -84 -23 -146 -6 -63 -15 -163 -21
-224 -6 -60 -14 -150 -18 -199 -7 -91 -24 -122 -36 -69 -25 104 -141 437 -166
476 -34 55 -108 111 -168 129 -37 11 -49 22 -78 69 -57 95 -155 172 -260 204
-50 16 -199 27 -244 19z m225 -193 c85 -37 156 -126 174 -215 7 -30 8 -31 74
-37 54 -5 74 -11 105 -35 41 -34 44 -40 220 -589 144 -447 137 -419 118 -470
-10 -24 -28 -54 -42 -68 -29 -30 -65 -36 -374 -67 -52 -5 -133 -14 -180 -19
-47 -6 -159 -18 -250 -26 -91 -9 -203 -21 -250 -26 -47 -5 -122 -12 -168 -15
-78 -6 -84 -5 -117 20 -19 15 -42 41 -51 59 -18 33 -17 80 6 302 6 55 15 145
20 200 5 55 14 143 20 195 5 52 14 147 20 210 16 173 49 227 155 253 l50 12 7
66 c8 82 33 132 93 188 48 44 94 68 155 82 52 12 167 1 215 -20z m2389 0 c3
-5 2 -44 -3 -87 -6 -44 -15 -133 -21 -199 -13 -137 -25 -266 -39 -410 -6 -55
-13 -142 -17 -194 l-7 -94 89 7 c89 7 153 13 377 36 65 7 121 10 124 7 5 -6
-13 -217 -23 -264 -4 -20 -11 -23 -47 -23 -23 0 -78 -5 -122 -10 -73 -10 -359
-39 -580 -60 -49 -5 -116 -12 -147 -16 -50 -6 -58 -4 -58 10 0 15 16 184 40
416 10 105 24 245 40 403 6 56 15 143 20 192 5 50 12 125 15 167 4 43 12 81
18 85 7 4 82 15 167 24 85 9 158 17 162 18 4 0 9 -3 12 -8z m-1098 -173 c-8
-74 -21 -219 -36 -378 -12 -131 -26 -264 -40 -395 -17 -152 -19 -145 42 -145
29 0 88 4 132 10 109 13 256 28 341 36 l71 6 -13 -134 c-7 -73 -15 -139 -18
-145 -2 -7 -21 -13 -42 -13 -21 0 -74 -5 -118 -10 -44 -6 -172 -19 -285 -31
-346 -34 -383 -38 -448 -45 l-63 -7 5 34 c4 19 16 131 27 249 11 118 24 259
30 313 23 244 29 302 43 457 15 155 24 229 29 231 10 5 236 26 285 28 l64 1
-6 -62z m-2179 -225 c-4 -38 -16 -167 -27 -288 -10 -121 -24 -265 -30 -320
-23 -233 -29 -298 -42 -443 -11 -140 -14 -153 -33 -157 -11 -2 -69 -9 -130
-15 -60 -6 -125 -13 -142 -16 -33 -5 -33 -5 -33 37 0 24 4 81 9 128 34 302 47
503 31 481 -6 -8 -85 -134 -175 -279 -91 -146 -170 -268 -177 -272 -7 -4 -44
-8 -82 -10 l-70 -4 -36 65 c-20 36 -81 146 -135 245 -54 99 -100 182 -102 184
-8 10 -12 -11 -22 -119 -6 -63 -16 -158 -21 -210 -5 -52 -14 -144 -19 -204 -6
-61 -14 -113 -18 -117 -7 -7 -263 -39 -306 -39 -9 0 -13 8 -11 23 1 12 8 76
14 142 6 66 15 163 20 215 5 52 21 217 35 365 14 149 29 309 35 356 5 47 10
104 10 127 0 50 17 62 90 62 28 0 83 5 122 11 57 9 73 8 83 -3 7 -7 62 -105
121 -218 188 -357 242 -455 250 -455 4 0 50 68 102 150 52 83 138 218 190 300
52 83 120 189 150 238 54 86 54 87 95 88 23 0 62 4 87 8 25 5 74 9 109 10 l64
1 -6 -67z"/>
<path d="M2676 3827 c-47 -27 -75 -62 -85 -109 -14 -62 -12 -63 180 -43 96 9
178 21 184 26 18 17 -36 101 -80 126 -55 31 -145 31 -199 0z"/>
<path d="M9375 2849 c-119 -9 -142 -17 -187 -63 -37 -38 -53 -44 -61 -23 -3 8
-22 22 -42 31 -31 15 -53 17 -139 11 -55 -3 -117 -11 -136 -17 -38 -11 -100
-64 -100 -84 0 -24 -18 -24 -61 0 -177 98 -473 61 -638 -80 l-40 -34 -68 37
c-64 36 -74 38 -173 42 -97 3 -220 -5 -425 -29 -84 -10 -206 -22 -390 -40
-204 -20 -300 -33 -320 -43 -11 -5 -34 -23 -52 -40 l-32 -30 -69 22 c-38 12
-95 23 -128 24 -59 1 -229 -15 -354 -34 -36 -5 -130 -13 -210 -18 -146 -8
-202 -22 -229 -54 -16 -21 -34 -21 -86 -2 -56 20 -231 19 -314 -1 -211 -52
-385 -229 -422 -429 -15 -81 -6 -238 16 -295 51 -127 145 -219 269 -265 62
-23 86 -26 188 -26 120 0 181 11 257 43 38 16 52 17 90 8 36 -9 73 -8 171 5
69 9 152 18 185 20 181 11 257 24 296 49 37 25 40 25 72 10 30 -15 50 -15 168
-5 198 17 302 27 524 51 239 25 464 47 600 60 136 13 200 25 263 48 58 22 140
72 166 101 17 19 19 19 64 -10 160 -101 414 -92 603 21 l35 22 40 -27 c37 -25
44 -27 119 -21 200 15 244 28 286 87 l20 29 37 -29 c50 -39 79 -44 207 -31
172 16 211 56 226 230 4 52 12 142 18 200 6 58 17 183 26 278 l16 174 -23 46
c-25 51 -89 93 -138 91 -14 -1 -70 -5 -125 -10z m115 -216 c0 -32 -4 -92 -10
-133 -5 -41 -14 -129 -20 -195 -17 -184 -31 -289 -38 -296 -4 -4 -40 -9 -80
-11 l-73 -4 -127 169 -127 170 -7 -74 c-3 -41 -10 -118 -14 -172 -4 -53 -12
-104 -18 -111 -12 -16 -166 -38 -179 -26 -4 4 -3 61 3 126 11 117 18 195 40
424 6 63 14 118 19 123 9 9 150 32 155 26 2 -2 56 -75 121 -161 64 -87 121
-158 126 -158 8 0 12 25 29 200 7 63 13 122 13 130 3 19 38 28 120 29 l67 1 0
-57z m-923 -74 c77 -37 118 -85 143 -168 23 -72 25 -109 9 -183 -42 -196 -200
-318 -419 -321 -82 -1 -102 2 -150 24 -165 76 -222 267 -136 454 89 194 359
289 553 194z m-742 -73 c95 -57 100 -191 9 -264 l-33 -26 30 -18 c43 -26 69
-75 69 -131 0 -56 -16 -90 -62 -133 -75 -71 -128 -83 -526 -119 l-72 -7 5 58
c3 33 10 100 15 149 5 50 16 169 25 265 9 96 18 184 20 196 4 19 16 22 152 33
82 7 155 14 163 16 42 10 177 -2 205 -19z m-640 -93 c-8 -77 -21 -93 -74 -93
-20 0 -89 -5 -153 -12 -128 -13 -128 -13 -128 -87 l0 -34 83 6 c45 4 110 9
145 13 l62 7 0 -65 c0 -41 -5 -69 -12 -75 -7 -6 -51 -14 -98 -18 -47 -4 -110
-11 -140 -14 l-55 -6 -5 -58 c-3 -32 -4 -59 -3 -60 2 -3 142 10 252 24 46 5
85 8 88 5 2 -2 1 -36 -3 -75 -8 -83 0 -78 -151 -92 -202 -18 -298 -28 -345
-35 l-48 -7 0 38 c0 21 4 77 10 124 5 47 14 131 19 186 5 55 15 154 22 221
l12 121 106 12 c58 6 151 17 206 22 55 6 109 12 120 13 11 2 37 4 58 5 l39 1
-7 -67z m-798 -38 c64 -19 98 -46 125 -98 30 -57 30 -165 0 -223 -20 -38 -79
-100 -117 -121 -16 -9 -11 -20 49 -106 l66 -95 -67 -7 c-146 -14 -130 -19
-193 70 -55 78 -57 80 -96 78 -61 -4 -64 -7 -64 -66 0 -30 -3 -68 -6 -85 -7
-33 -7 -33 -138 -48 l-59 -7 7 79 c21 245 58 600 64 606 4 4 61 12 127 19 66
6 122 13 124 15 11 10 133 2 178 -11z m-572 -97 c-3 -35 -10 -110 -16 -168 -5
-58 -14 -145 -19 -195 -5 -49 -12 -119 -15 -155 -10 -111 -10 -110 -69 -110
-28 0 -68 -4 -89 -9 -20 -5 -39 -6 -42 -2 -4 7 25 331 45 502 5 47 10 106 10
132 0 40 3 47 23 52 43 9 73 12 125 14 l53 1 -6 -62z m-419 7 c28 -8 68 -30
90 -49 l39 -35 -63 -63 c-46 -47 -65 -60 -76 -53 -57 42 -65 45 -128 46 -72 1
-107 -12 -150 -58 -61 -64 -79 -189 -35 -254 57 -86 193 -92 270 -12 17 18 37
33 42 33 6 0 34 -22 64 -48 l54 -48 -18 -28 c-48 -73 -178 -126 -309 -126
-112 0 -176 23 -238 87 -65 67 -83 117 -83 228 1 80 5 98 33 158 51 111 144
187 272 223 62 17 177 17 236 -1z m-142 -340 c-17 -27 -44 -34 -44 -12 0 19
21 37 42 37 17 0 17 -1 2 -25z"/>
<path d="M8279 2407 c-88 -47 -132 -174 -95 -272 37 -96 156 -120 257 -52 103
70 118 269 25 327 -47 28 -129 27 -187 -3z m81 -167 c0 -11 -4 -20 -10 -20 -5
0 -10 9 -10 20 0 11 5 20 10 20 6 0 10 -9 10 -20z"/>
<path d="M7549 2357 l-66 -10 -6 -56 c-3 -31 -3 -59 2 -64 12 -12 164 13 191
32 29 21 38 72 17 89 -21 18 -65 21 -138 9z"/>
<path d="M7524 2093 c-60 -4 -62 -5 -68 -35 -10 -53 -7 -108 7 -108 50 0 186
24 205 36 37 24 48 58 28 89 -18 27 -16 27 -172 18z"/>
<path d="M6153 2203 c-19 -4 -22 -13 -28 -71 -3 -37 -9 -80 -12 -96 l-5 -29
78 7 c116 11 153 38 154 113 0 59 -32 83 -109 82 -31 -1 -66 -4 -78 -6z"/>
<path d="M4125 2320 c-74 -9 -93 -16 -127 -48 l-27 -24 -45 22 c-50 24 -42 24
-376 -10 -41 -4 -131 -13 -200 -19 -146 -13 -177 -22 -214 -60 l-28 -29 -56
22 c-47 17 -79 21 -182 21 -127 0 -161 -7 -252 -47 -43 -19 -52 -20 -88 -8
-26 9 -61 11 -107 6 -253 -25 -250 -24 -287 -65 l-19 -21 -34 21 c-32 20 -43
21 -151 14 -145 -8 -183 -18 -227 -56 -42 -37 -51 -65 -64 -209 -6 -63 -16
-164 -21 -225 -6 -60 -15 -146 -21 -190 -5 -44 -10 -115 -11 -157 -1 -67 2
-82 24 -116 15 -21 43 -47 64 -57 35 -16 50 -17 170 -7 137 11 171 21 213 66
22 23 26 24 41 11 8 -8 33 -21 54 -30 34 -14 53 -15 150 -5 164 17 171 18 212
46 37 25 40 26 94 13 88 -22 271 -17 350 9 84 29 153 68 216 126 l52 46 12
-29 c15 -38 46 -66 93 -86 32 -13 54 -14 153 -4 64 5 128 15 143 21 14 5 82
12 151 14 218 6 270 25 315 115 22 42 30 49 54 49 21 0 32 -6 36 -19 9 -31 71
-79 109 -86 19 -4 90 -2 158 4 104 10 129 16 161 37 48 31 82 101 74 151 -3
18 -42 136 -86 261 -44 125 -96 275 -116 333 -63 184 -90 210 -220 208 -44 -1
-107 -5 -140 -9z m233 -335 c35 -99 85 -243 113 -320 27 -77 49 -144 49 -147
0 -8 -42 -15 -127 -22 l-63 -4 -18 61 -18 62 -65 -3 c-35 -2 -99 -8 -142 -14
l-78 -10 -34 -67 -33 -67 -94 -11 c-51 -6 -95 -9 -98 -6 -3 2 75 163 173 357
l177 353 63 10 c34 6 78 10 97 9 l35 -1 63 -180z m-511 64 c-3 -39 -8 -74 -11
-77 -5 -4 -136 -19 -187 -21 -14 -1 -18 -23 -28 -133 -7 -73 -16 -169 -21
-212 -6 -44 -10 -98 -10 -121 0 -63 -12 -72 -113 -79 l-88 -6 6 72 c8 100 24
255 36 361 6 49 9 90 6 93 -2 2 -47 -1 -100 -8 -53 -6 -99 -10 -102 -7 -7 8
10 138 21 148 5 5 88 17 184 26 96 9 209 20 250 25 41 4 95 8 119 9 l44 1 -6
-71z m-872 -24 c152 -44 223 -156 213 -330 -13 -194 -149 -334 -360 -367 -283
-43 -460 181 -358 455 68 182 310 298 505 242z m-541 -87 c-148 -157 -264
-287 -264 -296 0 -6 57 -84 126 -174 l125 -163 -33 -7 c-18 -4 -67 -10 -108
-13 l-75 -7 -85 111 c-46 61 -87 111 -91 111 -3 0 -22 -20 -42 -45 -31 -40
-36 -55 -42 -125 l-7 -79 -32 -5 c-17 -3 -59 -7 -93 -10 -60 -5 -63 -5 -63 16
0 31 38 424 50 523 6 44 10 95 10 113 0 17 1 32 3 33 1 0 44 4 95 7 l92 7 0
-36 c0 -20 -5 -72 -11 -117 -6 -44 -9 -88 -7 -97 3 -15 112 98 240 248 28 33
65 42 198 46 l54 1 -40 -42z"/>
<path d="M4133 1860 c-28 -58 -48 -108 -44 -112 3 -4 40 -2 82 5 l75 12 -32
100 -31 100 -50 -105z"/>
<path d="M2748 1850 c-121 -65 -149 -277 -44 -341 35 -21 118 -25 163 -8 75
28 126 112 127 210 0 75 -15 108 -67 139 -43 26 -129 26 -179 0z m82 -164 c0
-15 -18 -31 -26 -23 -7 7 7 37 17 37 5 0 9 -6 9 -14z"/>
<path d="M8482 1243 c-7 -3 -17 -16 -22 -29 -5 -13 -17 -24 -27 -25 -10 0 -54
-5 -98 -10 -44 -5 -111 -11 -150 -14 -38 -2 -92 -7 -120 -9 -70 -7 -192 -15
-244 -15 -35 0 -50 6 -68 26 -18 19 -29 23 -46 18 -12 -4 -46 -9 -74 -10 -78
-4 -84 -12 -78 -109 9 -130 13 -146 41 -158 20 -10 29 -8 52 9 25 18 30 19 48
6 11 -8 29 -11 43 -8 13 3 69 8 125 11 56 3 139 9 186 14 130 15 168 13 197
-10 40 -31 99 -22 129 18 6 9 22 16 35 18 13 1 65 5 114 9 50 4 96 12 103 18
15 12 16 105 1 143 -12 34 -97 114 -119 113 -8 0 -21 -3 -28 -6z m46 -50 c2
-14 13 -23 32 -27 31 -6 34 -11 45 -98 6 -43 4 -48 -13 -48 -20 0 -32 33 -32
86 0 13 -4 24 -10 24 -6 0 -10 -27 -10 -61 0 -52 -2 -60 -17 -57 -13 2 -20 17
-25 48 -9 60 -10 145 -1 154 12 11 28 0 31 -21z m-76 -45 c15 -12 43 -126 34
-136 -2 -2 -26 -4 -53 -5 l-48 -2 -3 37 c-3 32 1 40 22 50 33 14 33 28 1 28
-29 0 -35 26 -7 33 30 8 38 7 54 -5z m-825 -10 c6 -7 16 -31 24 -53 l13 -40
11 50 c9 39 16 51 32 53 24 4 28 -9 38 -125 7 -70 6 -73 -14 -73 -18 0 -21 6
-22 43 l-1 42 -14 -32 c-17 -40 -29 -41 -48 -5 l-15 27 6 -35 c3 -25 0 -40
-10 -48 -10 -9 -17 -10 -22 -2 -9 15 -26 190 -19 201 8 13 30 11 41 -3z m726
-33 c4 -22 6 -62 5 -90 -3 -43 -7 -52 -30 -63 -21 -10 -33 -10 -48 -2 -26 14
-17 30 16 30 13 0 24 5 24 10 0 6 -10 10 -23 10 -35 0 -47 19 -47 77 0 59 15
75 65 70 25 -2 30 -7 38 -42z m-139 19 c10 -9 17 -35 18 -65 0 -27 1 -55 2
-61 1 -7 -6 -14 -15 -16 -14 -2 -18 9 -24 58 -9 78 -30 76 -26 -3 2 -45 -1
-57 -13 -57 -21 0 -24 8 -32 83 l-7 66 34 4 c19 2 37 5 41 5 4 1 14 -5 22 -14z
m-118 -19 c22 -34 15 -59 -19 -63 -16 -2 -27 -9 -27 -18 0 -12 7 -14 30 -9 24
5 30 3 30 -9 0 -25 -45 -42 -75 -28 -23 10 -25 17 -25 71 0 47 4 62 18 70 28
17 51 12 68 -14z m-124 -2 c13 -12 18 -31 18 -75 0 -51 -2 -58 -20 -58 -18 0
-20 7 -20 55 0 44 -3 55 -16 55 -14 0 -15 -8 -9 -55 5 -46 4 -56 -10 -61 -24
-9 -27 -1 -33 75 l-5 69 29 5 c16 2 33 5 38 6 5 0 18 -6 28 -16z m-124 -5 c7
-7 12 -27 12 -45 0 -28 -3 -33 -24 -33 -29 0 -38 -10 -27 -29 6 -9 11 -10 15
-2 8 12 46 15 46 4 0 -16 -35 -43 -55 -43 -30 0 -41 16 -48 73 -6 39 -3 51 13
67 23 23 50 26 68 8z"/>
<path d="M8415 1060 c-8 -13 4 -32 16 -25 12 8 12 35 0 35 -6 0 -13 -4 -16
-10z"/>
<path d="M8290 1075 c0 -24 5 -35 15 -35 16 0 18 12 9 48 -10 34 -24 26 -24
-13z"/>
<path d="M8050 1074 c0 -8 5 -12 10 -9 6 3 10 10 10 16 0 5 -4 9 -10 9 -5 0
-10 -7 -10 -16z"/>
<path d="M7806 1073 c-11 -11 -6 -23 9 -23 8 0 15 4 15 9 0 13 -16 22 -24 14z"/>
<path d="M7192 1134 c-12 -8 -22 -20 -22 -27 0 -6 -12 -21 -27 -33 -25 -19
-28 -29 -27 -76 0 -72 10 -105 35 -118 22 -13 316 5 357 21 20 8 22 15 22 82
0 60 -4 79 -21 101 l-21 27 -109 -7 c-96 -6 -109 -5 -109 9 0 15 -28 37 -47
37 -5 0 -19 -7 -31 -16z m52 -40 c3 -9 6 -53 6 -99 l0 -83 -36 -6 c-46 -9 -61
4 -69 59 -9 56 1 83 31 91 17 4 24 13 24 30 0 28 34 34 44 8z m240 -36 c8 -13
16 -45 17 -73 3 -44 1 -50 -16 -50 -17 0 -21 9 -25 49 -3 30 -11 51 -19 54
-11 4 -13 -6 -8 -52 4 -45 3 -58 -9 -63 -20 -8 -21 -7 -28 74 l-7 72 28 4 c15
2 34 5 40 6 7 0 19 -9 27 -21z m-136 4 c15 -10 32 -66 32 -109 0 -29 -3 -32
-40 -38 -47 -8 -70 6 -70 42 0 16 10 29 30 41 36 20 34 38 -3 34 -19 -2 -27 1
-27 11 0 24 51 36 78 19z"/>
<path d="M7180 992 c0 -16 7 -37 15 -48 13 -18 14 -15 15 29 0 35 -4 47 -15
47 -10 0 -15 -10 -15 -28z"/>
<path d="M7317 973 c-12 -11 -8 -23 8 -23 8 0 15 7 15 15 0 16 -12 20 -23 8z"/>
<path d="M6975 1123 c-11 -2 -30 -6 -43 -9 -12 -2 -27 -15 -32 -28 -8 -23 -47
-36 -105 -37 -78 0 -85 2 -85 21 0 24 -21 30 -93 26 -87 -4 -90 -11 -78 -141
6 -64 15 -113 23 -120 10 -10 38 -11 123 -4 61 6 135 11 165 13 30 1 95 6 143
11 78 7 90 10 99 30 7 17 6 30 -6 53 -9 17 -16 46 -16 64 -1 49 -17 110 -32
119 -14 9 -29 10 -63 2z m58 -107 c4 -46 14 -84 22 -93 18 -18 11 -33 -15 -33
-27 0 -37 25 -45 107 -8 77 -3 107 18 101 7 -3 15 -35 20 -82z m-65 51 c2 -12
-3 -17 -17 -17 -12 0 -21 6 -21 13 0 31 32 34 38 4z m-288 -3 c0 -4 -8 -28
-17 -54 -16 -46 -16 -48 5 -84 12 -20 22 -44 22 -52 0 -26 -29 -15 -47 19
l-18 32 -3 -32 c-2 -24 -8 -33 -22 -33 -22 0 -28 23 -31 120 -2 62 0 76 14 78
11 2 19 -7 26 -30 5 -18 10 -26 10 -18 1 23 30 60 47 60 8 0 14 -3 14 -6z
m294 -76 c10 -86 8 -98 -14 -98 -18 0 -20 7 -20 59 0 33 -3 66 -6 75 -4 11 0
16 14 16 16 0 20 -9 26 -52z m-60 20 c16 -26 -10 -50 -28 -25 -20 27 -26 21
-26 -28 0 -47 9 -56 30 -30 7 8 16 12 21 9 17 -10 9 -33 -16 -50 -23 -15 -27
-15 -49 -1 -29 19 -40 97 -18 129 17 24 70 21 86 -4z m-118 -17 c16 -31 8 -51
-21 -51 -28 0 -42 -17 -27 -32 8 -8 15 -8 26 1 18 15 37 6 30 -13 -7 -18 -50
-37 -69 -30 -9 4 -20 15 -25 25 -14 25 -12 103 2 117 21 21 71 10 84 -17z"/>
<path d="M6740 975 c0 -9 6 -12 15 -9 8 4 12 10 9 15 -8 14 -24 10 -24 -6z"/>
<path d="M6226 1054 c-9 -8 -16 -21 -16 -28 0 -16 -65 -29 -135 -27 -37 1 -53
6 -64 21 -11 17 -25 20 -80 20 -39 0 -72 -5 -79 -12 -14 -14 -15 -98 -3 -172
11 -66 40 -90 96 -82 22 3 67 8 100 10 33 2 69 5 80 6 11 0 98 6 193 12 127 8
178 15 188 26 11 11 13 28 8 76 -13 117 -37 139 -126 116 l-51 -13 -26 32
c-28 34 -61 40 -85 15z m56 -36 c2 -14 12 -24 28 -28 32 -8 50 -43 50 -102 0
-41 -3 -48 -19 -48 -17 0 -20 8 -23 52 -2 32 -8 53 -16 56 -10 3 -13 -9 -11
-54 3 -53 1 -59 -17 -59 -17 0 -20 10 -25 95 -4 52 -5 98 -2 103 9 15 32 6 35
-15z m-294 -103 c3 -97 -5 -115 -53 -115 -37 0 -52 29 -59 118 -7 77 -6 82 12
82 21 0 32 -38 32 -117 0 -33 4 -43 16 -43 15 0 16 10 11 79 -5 84 -3 94 23
89 12 -3 16 -21 18 -93z m476 63 c8 -13 16 -45 17 -73 l3 -50 -36 -9 c-48 -12
-70 5 -66 48 2 23 9 32 26 34 31 5 29 32 -3 32 -26 0 -35 24 -12 33 29 12 57
6 71 -15z m-252 -15 c13 -12 18 -31 18 -74 l0 -58 -37 -7 c-30 -6 -40 -3 -53
13 -15 20 -16 20 -33 -4 -20 -26 -54 -30 -83 -9 -27 20 -6 43 25 27 35 -19 26
11 -9 31 -21 12 -30 25 -30 42 0 41 54 60 84 30 21 -21 11 -36 -20 -28 -34 9
-29 -7 11 -33 33 -21 34 -21 51 -2 9 10 25 21 35 24 29 10 22 25 -11 25 -33 0
-39 14 -12 29 25 15 43 13 64 -6z"/>
<path d="M6420 889 c0 -11 5 -17 10 -14 6 3 10 13 10 21 0 8 -4 14 -10 14 -5
0 -10 -9 -10 -21z"/>
<path d="M6174 879 c-3 -6 -1 -16 5 -22 8 -8 11 -5 11 11 0 24 -5 28 -16 11z"/>
<path d="M4932 953 c-19 -17 -20 -25 -12 -127 5 -68 14 -114 22 -122 11 -11
34 -12 113 -6 89 8 103 7 124 -10 35 -27 96 -24 126 6 22 22 39 26 147 36 341
30 359 33 367 49 14 26 -4 149 -25 172 -20 22 -62 22 -304 0 -124 -11 -343
-28 -383 -28 -15 -1 -39 -8 -53 -18 -22 -14 -25 -21 -20 -58 4 -31 3 -36 -3
-17 -5 14 -9 42 -10 63 -1 38 -29 77 -55 77 -8 0 -23 -8 -34 -17z m842 -35
c10 -14 16 -44 16 -75 0 -46 -3 -53 -20 -53 -16 0 -19 8 -22 57 -2 36 -8 58
-17 61 -10 3 -12 -9 -10 -59 3 -52 1 -64 -12 -67 -20 -4 -29 25 -29 95 0 41 4
52 18 56 39 10 62 6 76 -15z m-786 -53 c3 -70 9 -105 20 -104 18 3 30 -2 36
-16 4 -12 -4 -15 -38 -15 l-43 0 -11 93 c-11 99 -9 110 16 105 13 -2 18 -17
20 -63z m661 47 c5 -9 11 -42 12 -72 l3 -54 -34 -7 c-43 -9 -59 -3 -67 29 -7
31 7 56 36 60 31 5 19 28 -13 24 -25 -3 -36 15 -19 31 14 15 72 7 82 -11z
m-119 -12 c6 -11 14 -43 17 -70 5 -41 3 -51 -11 -56 -23 -9 -27 -3 -35 56 -8
68 -26 63 -26 -8 0 -46 -3 -57 -17 -60 -15 -3 -18 4 -18 35 0 21 -3 54 -6 75
-6 32 -4 37 17 41 51 9 69 7 79 -13z m-123 -20 c7 -14 13 -46 13 -71 0 -46 -1
-46 -37 -52 -75 -13 -102 57 -35 92 36 19 32 25 -15 21 -15 -1 -23 4 -23 13 0
36 79 34 97 -3z m-184 -38 c11 -68 27 -66 27 3 0 47 3 55 19 55 16 0 19 -10
24 -77 6 -96 -7 -126 -55 -121 -39 4 -51 28 -14 28 16 0 26 6 26 15 0 9 -9 15
-24 15 -13 0 -26 6 -29 14 -11 28 -19 105 -12 116 14 22 30 2 38 -48z m-66 18
c6 -14 13 -45 15 -69 3 -45 3 -45 -36 -53 -48 -10 -66 3 -66 47 0 28 5 35 31
44 35 12 30 36 -6 27 -28 -7 -38 3 -23 21 18 23 71 12 85 -17z"/>
<path d="M5600 825 c0 -8 5 -15 10 -15 6 0 10 7 10 15 0 8 -4 15 -10 15 -5 0
-10 -7 -10 -15z"/>
<path d="M5350 805 c0 -8 7 -15 15 -15 8 0 15 7 15 15 0 8 -7 15 -15 15 -8 0
-15 -7 -15 -15z"/>
<path d="M5107 794 c-8 -8 1 -24 14 -24 5 0 9 7 9 15 0 15 -12 20 -23 9z"/>
<path d="M4775 911 c-17 -16 -44 -22 -160 -32 -77 -7 -159 -12 -183 -11 -36 2
-48 -3 -73 -28 -17 -16 -32 -30 -35 -30 -2 0 -4 17 -4 38 0 21 -5 43 -12 50
-18 18 -63 14 -82 -6 -14 -17 -15 -30 -5 -123 7 -57 18 -110 25 -118 10 -11
31 -12 121 -3 59 6 146 13 193 15 47 3 119 8 160 11 41 4 90 7 109 7 19 0 43
5 53 10 22 12 23 51 3 82 -12 19 -13 29 -3 54 26 68 -57 133 -107 84z m69 -38
c14 -18 16 -28 8 -31 -17 -5 -15 -64 4 -90 14 -21 12 -42 -5 -42 -24 0 -42 31
-52 88 -15 98 5 131 45 75z m-556 -29 c10 -122 13 -133 35 -136 40 -6 26 -33
-19 -36 -41 -3 -41 -2 -47 35 -9 51 -9 158 0 167 13 13 28 -1 31 -30z m471 2
c6 -7 14 -40 17 -73 l7 -60 -37 -6 c-47 -8 -63 -1 -70 28 -8 33 2 54 30 61 13
3 24 13 24 21 0 10 -6 12 -20 8 -28 -9 -44 3 -29 21 15 18 63 18 78 0z m-173
-56 c5 -42 11 -60 21 -60 11 0 13 12 7 60 -6 56 -5 60 13 60 16 0 22 -9 27
-37 16 -98 4 -115 -84 -119 -71 -4 -78 3 -87 86 -6 57 -5 62 13 58 12 -2 20
-13 22 -28 11 -108 32 -124 32 -25 0 50 3 65 15 65 10 0 16 -17 21 -60z m-136
30 c29 -29 26 -58 -7 -66 -40 -10 -45 -14 -33 -29 9 -11 16 -12 30 -2 24 14
38 2 24 -21 -14 -22 -67 -27 -82 -9 -7 8 -15 34 -18 59 -5 38 -3 49 15 67 26
26 45 27 71 1z"/>
<path d="M4715 759 c-4 -6 -5 -13 -2 -16 7 -7 27 6 27 18 0 12 -17 12 -25 -2z"/>
<path d="M4400 790 c0 -5 7 -10 15 -10 8 0 15 5 15 10 0 6 -7 10 -15 10 -8 0
-15 -4 -15 -10z"/>
<path d="M3962 856 l-21 -36 -75 0 c-66 0 -78 3 -99 24 -27 27 -71 25 -86 -3
-5 -9 -14 -62 -20 -119 -15 -130 -12 -136 73 -127 34 3 120 10 191 15 234 17
246 18 261 30 27 23 11 163 -22 187 -10 7 -36 13 -59 13 -32 0 -42 4 -50 23
-7 15 -20 23 -41 25 -27 3 -34 -2 -52 -32z m75 -92 c7 -49 11 -94 9 -100 -6
-15 -67 -24 -88 -13 -21 11 -34 99 -18 128 6 12 20 21 30 21 14 0 20 7 20 23
0 13 3 27 7 31 17 17 28 -7 40 -90z m-266 -29 c22 -99 21 -121 -8 -92 -16 16
-18 15 -40 -5 -37 -34 -44 -14 -32 82 15 109 15 110 38 110 17 0 23 -15 42
-95z m377 63 c5 -7 12 -40 14 -72 3 -59 3 -60 -27 -68 -41 -11 -64 -2 -71 29
-8 32 6 57 35 61 11 2 21 10 21 19 0 11 -7 14 -25 11 -14 -3 -28 -1 -32 4 -14
25 66 39 85 16z m-244 -30 c10 -14 16 -44 16 -75 0 -46 -3 -53 -20 -53 -16 0
-20 7 -20 38 0 20 -3 47 -6 60 -12 43 -24 21 -24 -44 0 -57 -2 -65 -17 -62
-15 3 -19 16 -21 72 -3 75 3 86 50 86 17 0 33 -9 42 -22z"/>
<path d="M3976 763 c-8 -8 -8 -46 0 -67 11 -29 24 -17 24 23 0 38 -10 57 -24
44z"/>
<path d="M3730 710 c0 -11 4 -20 9 -20 5 0 7 9 4 20 -3 11 -7 20 -9 20 -2 0
-4 -9 -4 -20z"/>
<path d="M4100 705 c0 -8 5 -15 10 -15 6 0 10 7 10 15 0 8 -4 15 -10 15 -5 0
-10 -7 -10 -15z"/>
<path d="M3539 843 c-9 -2 -21 -14 -27 -27 -11 -26 -20 -27 -282 -46 -80 -6
-155 -13 -167 -16 -18 -3 -23 0 -23 16 0 12 -10 25 -23 31 -31 14 -77 -4 -77
-30 0 -14 -9 -20 -35 -23 -29 -3 -38 0 -51 20 -14 21 -21 23 -57 18 -23 -3
-57 -6 -75 -6 -64 1 -72 -6 -72 -63 0 -29 3 -83 7 -120 5 -58 10 -70 29 -79
17 -8 30 -6 54 6 22 10 38 13 49 6 11 -5 49 -5 97 0 141 16 259 15 285 -4 36
-25 95 -21 124 9 22 22 39 25 153 36 160 14 169 15 176 34 3 8 1 61 -4 118
-12 119 -23 136 -81 120z m41 -49 c0 -8 -9 -14 -20 -14 -22 0 -28 26 -7 33 16
6 27 -1 27 -19z m-565 -103 c6 -49 15 -85 24 -90 7 -5 10 -14 7 -20 -11 -17
-44 -13 -54 7 -12 22 -25 169 -17 183 16 25 31 -4 40 -80z m-184 22 c0 -27 4
-69 8 -95 7 -45 0 -68 -21 -68 -4 0 -11 19 -15 43 -6 36 -8 39 -13 17 -9 -37
-34 -36 -52 2 l-15 33 5 -53 c4 -49 3 -54 -14 -50 -21 4 -31 55 -33 156 -1 46
1 52 19 52 15 0 27 -13 42 -47 l21 -48 7 40 c7 51 16 65 41 65 16 0 19 -7 20
-47z m689 28 c16 -31 13 -131 -4 -131 -18 0 -26 22 -26 71 0 28 -4 39 -15 39
-12 0 -15 -12 -13 -57 2 -46 0 -58 -12 -58 -11 0 -17 17 -23 63 -11 82 -7 92
42 92 30 0 43 -5 51 -19z m70 -51 c0 -63 -2 -70 -20 -70 -18 0 -20 7 -20 70 0
63 2 70 20 70 18 0 20 -7 20 -70z m-200 34 c6 -14 10 -47 10 -73 0 -46 -2 -49
-30 -54 -39 -8 -57 -1 -64 28 -8 33 2 54 30 61 13 3 24 13 24 21 0 10 -6 12
-20 8 -11 -3 -25 -3 -30 0 -19 11 10 35 41 35 22 0 32 -6 39 -26z m-175 -39
c3 -30 11 -55 16 -55 5 0 9 25 9 55 0 48 3 55 19 55 17 0 20 -10 26 -75 9 -93
-7 -128 -57 -123 -39 4 -51 28 -14 28 13 0 28 5 31 10 3 6 -3 10 -14 10 -36 0
-51 27 -51 91 0 44 4 59 14 59 9 0 16 -18 21 -55z m-73 28 c13 -12 18 -31 18
-73 0 -57 0 -58 -32 -63 -40 -6 -64 6 -73 34 -8 24 19 59 47 59 10 0 18 5 18
10 0 6 -13 10 -28 10 -35 0 -45 9 -31 27 16 18 59 16 81 -4z m-204 -9 c34 -23
27 -68 -10 -72 -16 -2 -28 -9 -28 -16 0 -21 11 -26 31 -13 10 6 22 8 26 4 13
-14 -13 -42 -43 -45 -37 -5 -54 19 -54 79 0 38 5 51 22 63 28 20 28 20 56 0z"/>
<path d="M3345 649 c-10 -15 3 -25 16 -12 7 7 7 13 1 17 -6 3 -14 1 -17 -5z"/>
<path d="M3097 634 c-8 -8 1 -24 14 -24 5 0 9 7 9 15 0 15 -12 20 -23 9z"/>
<path d="M2900 664 c0 -8 5 -12 10 -9 6 3 10 10 10 16 0 5 -4 9 -10 9 -5 0
-10 -7 -10 -16z"/>
</g>
</svg>
